<svg width="77" height="80" viewBox="0 0 77 80" fill="none" xmlns="http://www.w3.org/2000/svg">
<path d="M50.403 42.3668C53.5484 39.7956 55.8443 36.2698 56.9712 32.2799C58.0981 28.29 58 24.0343 56.6906 20.105C55.3812 16.1757 52.9255 12.7681 49.6653 10.3563C46.405 7.94449 42.5023 6.64844 38.5 6.64844C34.4978 6.64844 30.5951 7.94449 27.3348 10.3563C24.0746 12.7681 21.6189 16.1757 20.3095 20.105C19.0001 24.0343 18.902 28.29 20.0289 32.2799C21.1558 36.2698 23.4517 39.7956 26.5971 42.3668C21.2074 44.6102 16.5046 48.3312 12.9902 53.1331C9.47586 57.935 7.28156 63.6378 6.6413 69.6334C6.59495 70.0712 6.63205 70.5141 6.75047 70.9369C6.86888 71.3598 7.0663 71.7543 7.33145 72.0978C7.86694 72.7917 8.64581 73.2362 9.49672 73.3334C10.3476 73.4307 11.2009 73.1727 11.8687 72.6164C12.5366 72.06 12.9644 71.2508 13.058 70.3667C13.7625 63.8507 16.753 57.8328 21.4581 53.4627C26.1632 49.0927 32.2531 46.6768 38.5642 46.6768C44.8753 46.6768 50.9652 49.0927 55.6703 53.4627C60.3755 57.8328 63.366 63.8507 64.0705 70.3667C64.1577 71.1858 64.5339 71.9423 65.1263 72.4901C65.7188 73.038 66.4856 73.3384 67.2788 73.3334H67.6317C68.4727 73.2329 69.2414 72.7911 69.7703 72.1042C70.2991 71.4174 70.5452 70.5413 70.455 69.6667C69.8117 63.6541 67.6056 57.9367 64.0732 53.1274C60.5407 48.3182 55.8151 44.5984 50.403 42.3668ZM38.5 40.0001C35.9619 40.0001 33.4807 39.2181 31.3702 37.753C29.2598 36.2879 27.6149 34.2055 26.6436 31.7692C25.6723 29.3329 25.4181 26.652 25.9133 24.0656C26.4085 21.4791 27.6307 19.1034 29.4255 17.2387C31.2203 15.374 33.507 14.1041 35.9964 13.5896C38.4858 13.0752 41.0662 13.3392 43.4112 14.3484C45.7561 15.3575 47.7604 17.0665 49.1706 19.2592C50.5807 21.4518 51.3334 24.0297 51.3334 26.6668C51.3334 30.203 49.9813 33.5944 47.5746 36.0948C45.1679 38.5953 41.9037 40.0001 38.5 40.0001Z" fill="black"/>
</svg>
