<svg width="106" height="78" viewBox="0 0 106 78" fill="none" xmlns="http://www.w3.org/2000/svg">
<g clip-path="url(#clip0_42_82)">
<path d="M53 0C23.7282 0 0 17.4603 0 39C0 60.5397 23.7282 78 53 78C53.752 78 54.4972 77.9862 55.2415 77.9633V49.4953H47.2467V39.6842H55.2415V33.7951C55.2415 25.7908 59.7465 21.0273 72.5595 21.0273H83.2276V30.8445H76.5611C71.5724 30.8445 71.2395 32.2132 71.2395 34.7726L71.2229 39.6842H83.3023L81.891 49.4953H71.2229V75.6358C91.5173 70.1679 106 55.8279 106 39C106 17.4603 82.2718 0 53 0Z" fill="#52796F"/>
<path d="M72.5609 21.0312C59.7479 21.0312 55.2429 25.7948 55.2429 33.7991V39.6882H47.248V49.4993H55.2429V77.9673C60.8368 77.7958 66.2092 76.991 71.2242 75.6398V49.4993H81.8923L83.3037 39.6882H71.2242L71.2408 34.7766C71.2408 32.2172 71.5738 30.8484 76.5624 30.8484H83.2289V21.0312H72.5609Z" fill="#D1EFB5"/>
</g>
<defs>
<clipPath id="clip0_42_82">
<rect width="106" height="78" fill="white"/>
</clipPath>
</defs>
</svg>
