<svg width="325" height="135" viewBox="0 0 325 135" fill="none" xmlns="http://www.w3.org/2000/svg">
<path d="M214.855 107.383V116.668C214.855 119.091 210.311 120.975 204.469 120.975H120.085C114.243 120.975 109.699 119.091 109.699 116.668V107.383H214.855ZM189.54 17.0882V18.8376H135.014V16.9536C135.014 14.9351 131.12 13.3203 126.251 13.3203C121.383 13.3203 117.489 14.9351 117.489 16.9536V46.5586H206.416V16.9536C206.416 14.9351 202.522 13.3203 197.653 13.3203C193.434 13.4549 189.54 15.0697 189.54 17.0882ZM189.54 30.4104H135.014V23.1438H189.54V30.4104Z" fill="#52796F"/>
<path d="M168.768 26.375H155.786V32.1614H168.768V26.375Z" fill="white"/>
<path d="M152.54 35.6612V32.1625C152.54 31.4896 153.839 31.0859 155.137 31.0859H169.093C170.715 31.0859 171.689 31.6242 171.689 32.1625V35.6612H152.54Z" fill="#CAD2C5"/>
<path d="M224.267 60.2884V105.234C224.267 110.079 214.855 113.846 203.495 113.846H121.059C109.375 113.846 100.287 109.944 100.287 105.234V60.2884C100.287 53.1563 107.103 46.697 118.462 42.1217C129.822 37.4119 145.076 34.5859 162.277 34.5859C196.68 34.5859 224.267 46.0242 224.267 60.2884Z" fill="#CAD2C5"/>
<path d="M222.969 53.8281H101.585C97.6908 53.8281 94.7698 55.1738 94.7698 56.654C94.7698 58.2689 98.0153 59.48 101.585 59.48H222.969C226.863 59.48 229.784 58.1343 229.784 56.654C229.784 55.1738 226.863 53.8281 222.969 53.8281ZM222.969 98.101H101.585C97.6908 98.101 94.7698 99.4466 94.7698 100.927C94.7698 102.542 98.0153 103.753 101.585 103.753H222.969C226.863 103.753 229.784 102.407 229.784 100.927C229.784 99.3121 226.863 98.101 222.969 98.101Z" fill="#52796F"/>
</svg>
