<svg width="89" height="81" viewBox="0 0 89 81" fill="none" xmlns="http://www.w3.org/2000/svg">
<rect width="89" height="81" rx="20" fill="#52796F"/>
<path d="M64.3025 18.4275C63.4223 18.4275 62.562 18.665 61.8302 19.11C61.0984 19.5551 60.528 20.1876 60.1912 20.9276C59.8544 21.6677 59.7663 22.482 59.938 23.2676C60.1097 24.0532 60.5335 24.7749 61.1558 25.3413C61.7782 25.9077 62.5711 26.2934 63.4343 26.4497C64.2975 26.6059 65.1923 26.5257 66.0054 26.2192C66.8185 25.9127 67.5135 25.3936 68.0025 24.7276C68.4915 24.0615 68.7525 23.2785 68.7525 22.4775C68.7525 21.4034 68.2836 20.3732 67.4491 19.6137C66.6145 18.8542 65.4827 18.4275 64.3025 18.4275ZM81.3608 26.595C81.2887 23.7948 80.7124 21.0242 79.655 18.3937C78.712 16.1431 77.2445 14.1051 75.3533 12.42C73.517 10.6901 71.2725 9.36285 68.7895 8.53875C65.9069 7.54704 62.8594 7.01058 59.7783 6.9525C55.8475 6.75 54.5866 6.75 44.5 6.75C34.4133 6.75 33.1525 6.75 29.2216 6.9525C26.1406 7.01058 23.093 7.54704 20.2104 8.53875C17.732 9.37119 15.4894 10.6973 13.6466 12.42C11.7458 14.0912 10.2875 16.134 9.38204 18.3937C8.29239 21.0173 7.70295 23.7909 7.63913 26.595C7.41663 30.1725 7.41663 31.32 7.41663 40.5C7.41663 49.68 7.41663 50.8275 7.63913 54.405C7.70295 57.2091 8.29239 59.9827 9.38204 62.6062C10.2875 64.866 11.7458 66.9088 13.6466 68.58C15.4894 70.3027 17.732 71.6288 20.2104 72.4613C23.093 73.453 26.1406 73.9894 29.2216 74.0475C33.1525 74.25 34.4133 74.25 44.5 74.25C54.5866 74.25 55.8475 74.25 59.7783 74.0475C62.8594 73.9894 65.9069 73.453 68.7895 72.4613C71.2725 71.6372 73.517 70.3099 75.3533 68.58C77.2529 66.9012 78.7217 64.8614 79.655 62.6062C80.7124 59.9758 81.2887 57.2052 81.3608 54.405C81.3608 50.8275 81.5833 49.68 81.5833 40.5C81.5833 31.32 81.5833 30.1725 81.3608 26.595ZM74.6858 54C74.6588 56.1424 74.2325 58.265 73.425 60.2775C72.8329 61.7463 71.8818 63.0734 70.6437 64.1588C69.4409 65.2742 67.9857 66.138 66.3791 66.69C64.1679 67.4249 61.8356 67.8129 59.4816 67.8375C55.7733 68.0063 54.4012 68.04 44.6483 68.04C34.8954 68.04 33.5233 68.04 29.815 67.8375C27.3708 67.8792 24.937 67.5366 22.6208 66.825C21.0847 66.2448 19.6962 65.3832 18.5416 64.2937C17.3108 63.2095 16.3717 61.8813 15.7975 60.4125C14.8921 58.3711 14.3899 56.2003 14.3141 54C14.3141 50.625 14.0916 49.3763 14.0916 40.5C14.0916 31.6237 14.0916 30.375 14.3141 27C14.3307 24.8098 14.7701 22.6393 15.612 20.5875C16.2649 19.1629 17.2669 17.8931 18.5416 16.875C19.6683 15.7146 21.0607 14.7929 22.6208 14.175C24.8812 13.4326 27.2636 13.0446 29.6666 13.0275C33.375 13.0275 34.747 12.825 44.5 12.825C54.2529 12.825 55.625 12.825 59.3333 13.0275C61.6872 13.0521 64.0195 13.4401 66.2308 14.175C67.916 14.7442 69.4285 15.6696 70.6437 16.875C71.8589 17.9117 72.8085 19.1792 73.425 20.5875C74.2491 22.6427 74.6757 24.8123 74.6858 27C74.8712 30.375 74.9083 31.6237 74.9083 40.5C74.9083 49.3763 74.8712 50.625 74.6858 54ZM44.5 23.1862C40.739 23.1929 37.0646 24.214 33.9411 26.1205C30.8175 28.027 28.3849 30.7334 26.9508 33.8977C25.5166 37.0619 25.1451 40.5421 25.8834 43.8984C26.6216 47.2547 28.4363 50.3366 31.0983 52.7546C33.7603 55.1726 37.1501 56.8182 40.8393 57.4835C44.5285 58.1488 48.3517 57.804 51.8257 56.4926C55.2996 55.1811 58.2685 52.962 60.3573 50.1155C62.446 47.269 63.5608 43.9229 63.5608 40.5C63.5657 38.2222 63.0758 35.966 62.1191 33.8612C61.1625 31.7564 59.7581 29.8445 57.9867 28.2354C56.2153 26.6264 54.1118 25.3519 51.7972 24.4854C49.4826 23.6189 47.0027 23.1773 44.5 23.1862ZM44.5 51.7388C42.0576 51.7388 39.6701 51.0796 37.6394 49.8447C35.6086 48.6097 34.0258 46.8545 33.0912 44.8009C32.1566 42.7473 31.912 40.4875 32.3885 38.3074C32.865 36.1273 34.0411 34.1248 35.7681 32.553C37.4951 30.9812 39.6954 29.9108 42.0908 29.4772C44.4863 29.0436 46.9692 29.2661 49.2256 30.1167C51.4821 30.9674 53.4107 32.4079 54.7676 34.2561C56.1245 36.1043 56.8487 38.2772 56.8487 40.5C56.8487 41.9759 56.5293 43.4373 55.9087 44.8009C55.2881 46.1644 54.3785 47.4034 53.2318 48.447C52.0852 49.4906 50.7238 50.3185 49.2256 50.8833C47.7274 51.4481 46.1216 51.7388 44.5 51.7388Z" fill="#D1EFB5"/>
</svg>
