<svg width="428" height="364" viewBox="0 0 428 364" fill="none" xmlns="http://www.w3.org/2000/svg">
<path d="M179.977 222.518C169.895 200.5 162.553 177.777 165.895 163.884C165.895 163.726 165.95 163.609 166.005 163.452C166.444 161.725 163.868 160.273 161.512 160.98C156.416 162.55 151.705 164.708 147.485 167.298C131.705 176.953 122.554 192.574 122.171 207.213C122.061 209.45 125.13 211.02 128.801 210.824L157.786 209.41L139.759 222.519H179.977V222.518Z" fill="black"/>
<path d="M305.834 207.209C305.451 192.217 295.862 176.125 279.315 166.549C275.369 164.313 271.151 162.389 266.494 160.976C264.138 160.269 261.562 161.721 262.001 163.448C262.055 163.605 262.111 163.762 262.165 163.959C265.399 177.852 258.056 200.537 247.974 222.515H288.246L270.219 209.406L299.204 210.82C302.875 211.016 305.944 209.447 305.834 207.209ZM143.156 108.047C144.288 110.296 138.191 126.036 176.743 155.576C196.86 170.966 231.285 170.942 251.37 155.576C290.032 125.953 283.858 110.335 285.013 108.047C297.278 108.047 303.698 97.4953 295.094 91.0526C302.327 79.593 306.437 67.1914 306.437 55.2984C306.437 17.7008 265.069 0 214.002 0C163.045 0 121.677 17.7001 121.677 55.2984C121.677 67.1914 125.787 79.593 133.018 91.0526C124.412 97.4989 130.852 108.047 143.156 108.047ZM412.818 230.366H15.1817C4.69345 230.366 -2.63019 237.807 0.895486 244.883L56.6497 356.787C58.8049 361.113 64.524 364 70.936 364H357.064C363.476 364 369.195 361.112 371.35 356.787L427.104 244.883C430.63 237.808 423.306 230.366 412.818 230.366ZM214.002 317.088C195.111 317.088 179.785 310.546 179.785 302.439C179.785 294.333 195.111 287.76 214.002 287.76C232.893 287.76 248.219 294.333 248.219 302.439C248.219 310.546 232.893 317.088 214.002 317.088Z" fill="black"/>
<path d="M129.732 218.628C118.576 217.318 110.918 215.069 111.212 206.972C111.541 194.098 117.787 181.186 128.034 170.983C100.528 176.123 76.9667 179.421 74.9952 179.421C49.8455 186.368 38.7773 201.085 38.7773 215.213V222.513H124.308C126.554 220.826 128.801 219.57 129.732 218.628ZM236.413 222.513C244.741 204.852 251.152 186.956 251.918 174.004C231.042 189.272 196.962 189.311 176.086 174.004C176.798 186.956 183.263 204.891 191.537 222.513H236.413ZM316.793 207.05C317.093 215.087 309.302 217.337 298.273 218.628C299.205 219.609 301.397 220.865 303.642 222.513H389.228V215.175C389.228 198.887 374.708 184.601 353.12 179.421C352.681 179.342 323.752 174.202 298.711 169.727C309.779 180.126 316.464 193.51 316.793 207.05Z" fill="black"/>
</svg>
