<svg width="192" height="105" viewBox="0 0 192 105" fill="none" xmlns="http://www.w3.org/2000/svg">
<path d="M96 13.125C81.7598 13.125 67.8393 15.4343 55.999 19.7609C44.1586 24.0875 34.9302 30.237 29.4807 37.4318C24.0312 44.6267 22.6054 52.5437 25.3835 60.1817C28.1616 67.8197 35.019 74.8356 45.0883 80.3423C55.1577 85.849 67.9869 89.5991 81.9535 91.1184C95.9202 92.6377 110.397 91.8579 123.553 88.8777C136.71 85.8975 147.954 80.8508 155.866 74.3756C163.777 67.9004 168 60.2876 168 52.5C168 42.0571 160.414 32.0419 146.912 24.6577C133.409 17.2734 115.096 13.125 96 13.125ZM96 85.3125C84.1332 85.3125 72.5328 83.3881 62.6658 79.7826C52.7989 76.1771 45.1085 71.0525 40.5673 65.0568C36.026 59.0611 34.8378 52.4636 37.1529 46.0986C39.468 39.7336 45.1825 33.887 53.5736 29.2981C61.9648 24.7091 72.6558 21.5841 84.2946 20.318C95.9335 19.0519 107.997 19.7017 118.961 22.1852C129.925 24.6687 139.295 28.8744 145.888 34.2704C152.481 39.6663 156 46.0103 156 52.5C156 61.2024 149.679 69.5484 138.426 75.7019C127.174 81.8555 111.913 85.3125 96 85.3125Z" fill="black"/>
<path d="M101.16 29.8566C95.3988 29.1689 89.3762 29.6652 84.2413 31.2508C79.1065 32.8364 75.2188 35.4004 73.32 38.4535C73.0595 38.8625 72.9526 39.296 73.0059 39.728C73.0592 40.1601 73.2715 40.5818 73.6301 40.9679C73.9887 41.354 74.4862 41.6965 75.0928 41.9749C75.6994 42.2533 76.4025 42.4618 77.16 42.5879C77.9163 42.7198 78.7129 42.7683 79.5037 42.7306C80.2945 42.6929 81.0637 42.5698 81.7669 42.3684C82.4701 42.1669 83.0932 41.8912 83.6001 41.5572C84.107 41.2231 84.4877 40.8374 84.72 40.4223C85.699 38.9409 87.6196 37.7015 90.1312 36.9304C92.6427 36.1593 95.5777 35.908 98.4 36.2223C101.148 36.6771 103.506 37.6556 105.047 38.98C106.588 40.3045 107.21 41.8872 106.8 43.441C106.167 44.9092 104.627 46.2133 102.442 47.1336C100.256 48.054 97.5575 48.5345 94.8 48.4941C93.9538 48.4382 93.0955 48.4815 92.2823 48.6211C91.4691 48.7608 90.7196 48.9936 90.0838 49.3041C89.448 49.6145 88.9404 49.9955 88.5949 50.4216C88.2494 50.8478 88.0739 51.3093 88.08 51.7754V62.0129C88.08 62.8831 88.7122 63.7177 89.8374 64.3331C90.9626 64.9484 92.4887 65.2941 94.08 65.2941C94.8622 65.3029 95.6398 65.2262 96.3671 65.0685C97.0944 64.9108 97.7568 64.6753 98.3156 64.3758C98.8744 64.0764 99.3183 63.7189 99.6212 63.3244C99.9242 62.93 100.08 62.5064 100.08 62.0785V54.8598C104.686 54.3292 108.906 53.0696 112.213 51.2376C115.52 49.4057 117.769 47.0823 118.68 44.5566C119.591 41.3559 118.306 38.084 115.072 35.3702C111.838 32.6565 106.883 30.6927 101.16 29.8566ZM93.72 68.1816C92.1568 68.2288 90.6802 68.5897 89.5732 69.1951C88.4661 69.8005 87.8063 70.608 87.72 71.4629V72.1848C87.7353 72.5955 87.9005 73.0005 88.206 73.3759C88.5114 73.7513 88.9509 74.0895 89.4986 74.3707C90.0464 74.6519 90.6913 74.8704 91.3957 75.0135C92.1 75.1565 92.8494 75.2211 93.6 75.2035C95.2031 75.1539 96.7126 74.7746 97.8255 74.1417C98.9384 73.5087 99.5723 72.669 99.6 71.791V71.266C99.6007 70.8497 99.4473 70.4376 99.1489 70.0546C98.8506 69.6715 98.4136 69.3255 97.8642 69.0373C97.3148 68.7491 96.6644 68.5247 95.9521 68.3777C95.2399 68.2306 94.4806 68.1639 93.72 68.1816Z" fill="black"/>
</svg>

