<svg width="66" height="75" viewBox="0 0 66 75" fill="none" xmlns="http://www.w3.org/2000/svg">
<g clip-path="url(#clip0_42_62)">
<rect width="66" height="75" rx="20" fill="#CAD2C5"/>
<path d="M33.0081 2.5438e-06H32.9914C26.9105 -0.00254301 20.9475 1.90544 15.7612 5.51309C10.5749 9.12075 6.3673 14.2876 3.60344 20.4426C0.839575 26.5977 -0.372954 33.5012 0.0998553 40.3903C0.572664 47.2795 2.7124 53.8859 6.28259 59.4796L2.16999 73.41L14.8543 68.8028C19.1489 72.0179 24.0455 74.0476 29.1532 74.7299C34.2609 75.4122 39.4382 74.7283 44.2719 72.7326C49.1056 70.737 53.4619 67.485 56.993 63.2361C60.5241 58.9872 63.1322 53.8592 64.6093 48.2613C66.0863 42.6633 66.3913 36.7505 65.5 30.9948C64.6086 25.2391 62.5456 19.7999 59.4755 15.1113C56.4054 10.4227 52.4134 6.61459 47.818 3.99087C43.2225 1.36715 38.151 0.00049796 33.0081 2.5438e-06Z" fill="#52796F"/>
<path d="M52.21 52.9494C51.4139 55.5043 48.2562 57.6228 45.7338 58.2419C44.0096 58.6592 41.7572 58.992 34.1754 55.4198C24.4772 50.8507 18.2322 39.6564 17.7457 38.9292C17.2766 38.2027 13.8268 32.9993 13.8268 27.6184C13.7839 25.9117 14.0629 24.2143 14.6448 22.6401C15.2268 21.066 16.0983 19.6515 17.2009 18.4916C18.1309 17.5655 19.3397 17.0834 20.575 17.146C20.9831 17.146 21.3504 17.1697 21.6807 17.1879C22.6504 17.2351 23.1369 17.3006 23.7763 19.0392C24.5724 21.2186 26.5111 26.6002 26.7423 27.1531C26.9055 27.4545 27.0034 27.7958 27.0277 28.1486C27.0521 28.5015 27.0022 28.8559 26.8823 29.1825C26.6112 29.8183 26.2503 30.3994 25.8141 30.9028C25.3276 31.5402 24.8652 32.0276 24.3787 32.7122C23.9331 33.3077 23.4298 33.9451 23.9907 35.0462C25.4408 37.8503 27.2448 40.3977 29.3451 42.6073C31.6008 44.9532 34.2264 46.7933 37.0837 48.0308C37.4634 48.2356 37.8887 48.3053 38.3039 48.2308C38.719 48.1564 39.1047 47.9412 39.4104 47.6135C40.3303 46.3722 41.1908 45.0758 41.9884 43.7297C42.2235 43.284 42.5961 42.9536 43.0338 42.8029C43.4714 42.6521 43.9427 42.6918 44.356 42.9142C45.2473 43.266 49.9617 45.9145 50.9314 46.4628C51.901 47.0111 52.5397 47.2784 52.7749 47.7422C53.0101 48.2059 53.0061 50.393 52.21 52.9494Z" fill="#D1EFB5"/>
</g>
<defs>
<clipPath id="clip0_42_62">
<rect width="66" height="75" rx="20" fill="white"/>
</clipPath>
</defs>
</svg>
